<!-- <svg width="14" height="14" viewBox="0 -100 1000 900" xmlns="http://www.w3.org/2000/svg" transform="scale(1 -1)">
<path d="M304 89q-44 0-74 30l-230 230 230 230q31 32 74 32t74-32q31-31 31-73t-31-74l-83-83 83-82q31-31 31-74t-31-74q-30-30-74-30z m399 0q-44 0-74 30-31 32-31 74t31 74l82 82-82 83q-31 31-31 74t31 73q30 32 73 32t74-32l230-230-230-230q-30-30-73-30z" />
</svg> -->
<!-- <svg width="16" height="16" viewBox="0 0 16 16" fill="none" xmlns="http://www.w3.org/2000/svg">
  <path d="M5.23062 4C4.8224 4 4.47913 4.15326 4.2008 4.45977L1 7.98467L4.2008 11.5096C4.4884 11.8365 4.83168 12 5.23062 12C5.62956 12 5.97283 11.8365 6.26044 11.5096C6.54804 11.1928 6.69185 10.8199 6.69185 10.3908C6.69185 9.96169 6.54804 9.58365 6.26044 9.2567L5.10537 7.98467L6.26044 6.72797C6.54804 6.41124 6.69185 6.03321 6.69185 5.59387C6.69185 5.15453 6.54804 4.7765 6.26044 4.45977C5.98211 4.15326 5.63883 4 5.23062 4ZM10.7833 4C10.3751 4 10.0318 4.15326 9.75348 4.45977C9.46587 4.78672 9.32207 5.16475 9.32207 5.59387C9.32207 6.02299 9.46587 6.40102 9.75348 6.72797L10.8946 7.98467L9.75348 9.2567C9.46587 9.57344 9.32207 9.95147 9.32207 10.3908C9.32207 10.8301 9.46587 11.2031 9.75348 11.5096C10.0318 11.8365 10.3704 12 10.7694 12C11.1683 12 11.5116 11.8365 11.7992 11.5096L15 7.98467L11.7992 4.45977C11.5209 4.15326 11.1822 4 10.7833 4Z" fill="black"/>
</svg> -->

<!-- <svg width="16" height="16" viewBox="0 0 16 16" fill="none" xmlns="http://www.w3.org/2000/svg">
  <path fill-rule="evenodd" clip-rule="evenodd" d="M4.86192 9.5286C4.60157 9.78893 4.60157 10.2111 4.86192 10.4714C5.12227 10.7317 5.54437 10.7317 5.80473 10.4714L7.47138 8.80473C7.91585 8.36027 7.91585 7.63973 7.47138 7.19527L5.80473 5.52859C5.54438 5.26825 5.12227 5.26825 4.86192 5.52859C4.60157 5.78895 4.60157 6.21105 4.86192 6.47141L6.39051 8L4.86192 9.5286ZM8.66665 9.33333C8.29845 9.33333 7.99998 9.6318 7.99998 10C7.99998 10.3682 8.29845 10.6667 8.66665 10.6667H10.6666C11.0348 10.6667 11.3333 10.3682 11.3333 10C11.3333 9.6318 11.0348 9.33333 10.6666 9.33333H8.66665ZM14.6666 5.28945C14.6666 5.30403 14.6666 5.31866 14.6666 5.33334V10.7105C14.6667 11.3015 14.6667 11.8107 14.6119 12.2185C14.5531 12.6555 14.4206 13.0745 14.0808 13.4142C13.7411 13.754 13.3222 13.8865 12.8852 13.9453C12.4774 14.0001 11.9682 14.0001 11.3772 14H4.62278C4.03178 14.0001 3.52257 14.0001 3.11479 13.9453C2.67778 13.8865 2.25888 13.754 1.91911 13.4142C1.57933 13.0745 1.44683 12.6555 1.38808 12.2185C1.33325 11.8107 1.33328 11.3015 1.33331 10.7105V5.28947C1.33328 4.69847 1.33325 4.18925 1.38808 3.78147C1.44683 3.34447 1.57933 2.92557 1.91911 2.58579C2.25888 2.24601 2.67778 2.11352 3.11479 2.05477C3.52257 1.99994 4.03177 1.99997 4.62277 2L11.3333 2.00001C11.348 2.00001 11.3626 2 11.3772 2C11.9682 1.99997 12.4774 1.99994 12.8852 2.05477C13.3222 2.11352 13.7411 2.24601 14.0808 2.58579C14.4206 2.92557 14.5531 3.34447 14.6119 3.78147C14.6667 4.18925 14.6667 4.69846 14.6666 5.28945Z" fill="black"/>
</svg> -->

<!-- <svg width="16" height="16" viewBox="0 0 16 16" fill="none" xmlns="http://www.w3.org/2000/svg">
  <path d="M13.3334 11.0001C13.8857 11.0001 14.3334 11.4478 14.3334 12.0001C14.3334 12.5199 13.9368 12.947 13.4297 12.9955L13.3334 13.0001H8.00006C7.4478 13.0001 7.00006 12.5523 7.00006 12.0001C7.00006 11.4803 7.39667 11.0531 7.90376 11.0047L8.00006 11.0001H13.3334ZM2.1884 3.52174C2.55452 3.15563 3.13389 3.13275 3.52666 3.4531L3.60261 3.52174L7.37386 7.29301C7.73999 7.65907 7.76287 8.23847 7.44251 8.63126L7.37386 8.70721L3.60261 12.4784C3.21209 12.8689 2.57892 12.8689 2.1884 12.4784C1.82229 12.1123 1.7994 11.5329 2.11975 11.1402L2.1884 11.0642L5.25253 8.00007L2.1884 4.93595C1.79788 4.54543 1.79788 3.91227 2.1884 3.52174Z" fill="black"/>
</svg> -->

<!-- <svg width="16" height="16" viewBox="0 0 16 16" fill="none" xmlns="http://www.w3.org/2000/svg">
  <g clip-path="url(#clip0_70_129)">
    <path d="M4.66665 9.99999L6.66665 7.99999L4.66665 5.99999M8.66665 9.99999H11.3333M14.6666 7.99999C14.6666 11.6819 11.6818 14.6667 7.99998 14.6667C4.31808 14.6667 1.33331 11.6819 1.33331 7.99999C1.33331 4.31809 4.31808 1.33333 7.99998 1.33333C11.6818 1.33333 14.6666 4.31809 14.6666 7.99999Z" stroke="black" stroke-width="1.5" stroke-linecap="round" stroke-linejoin="round"/>
  </g>
  <defs>
    <clipPath id="clip0_70_129">
      <rect width="16" height="16" fill="white"/>
    </clipPath>
  </defs>
</svg> -->

<!-- <svg width="16" height="16" viewBox="0 0 16 16" fill="none" xmlns="http://www.w3.org/2000/svg">
  <g clip-path="url(#clip0_70_131)">
    <path d="M1.33331 7.99999C1.33331 11.1427 1.33331 12.7141 2.30963 13.6903C3.28593 14.6667 4.85728 14.6667 7.99998 14.6667C11.1426 14.6667 12.714 14.6667 13.6903 13.6903C14.6666 12.7141 14.6666 11.1427 14.6666 7.99999V6.99999M8.99998 1.33333H7.99998C4.85728 1.33333 3.28593 1.33333 2.30963 2.30964C1.66047 2.9588 1.44294 3.87103 1.37005 5.33333" stroke="black" stroke-width="1.5" stroke-linecap="round"/>
    <path d="M11.1013 2.30337L11.5339 1.87082C12.2506 1.15416 13.4125 1.15416 14.1292 1.87082C14.8458 2.58749 14.8458 3.74943 14.1292 4.46609L13.6966 4.89863M11.1013 2.30337C11.1013 2.30337 11.1554 3.22252 11.9664 4.03354C12.7774 4.84456 13.6966 4.89863 13.6966 4.89863M11.1013 2.30337L7.12478 6.27995C6.85545 6.54929 6.72078 6.68393 6.60493 6.83246C6.46831 7.0076 6.35117 7.19713 6.25561 7.39766C6.17459 7.56766 6.11436 7.74833 5.99391 8.10973L5.60826 9.26666M13.6966 4.89863L11.7083 6.88693M5.60826 9.26666L5.35872 10.0153C5.29945 10.1931 5.34573 10.3891 5.47827 10.5217C5.61082 10.6543 5.80688 10.7005 5.98471 10.6413L6.73331 10.3917M5.60826 9.26666L6.73331 10.3917M9.72005 8.8752C9.45071 9.14453 9.31605 9.2792 9.16751 9.39506C8.99238 9.53166 8.80285 9.6488 8.60231 9.7444C8.43231 9.8254 8.25165 9.8856 7.89025 10.0061L6.73331 10.3917" stroke="black" stroke-width="1.5" stroke-linecap="round"/>
  </g>
  <defs>
    <clipPath id="clip0_70_131">
      <rect width="16" height="16" fill="white"/>
    </clipPath>
  </defs>
</svg> -->


<!-- <svg width="16" height="16" viewBox="0 0 16 16" fill="none" xmlns="http://www.w3.org/2000/svg">
  <path fill-rule="evenodd" clip-rule="evenodd" d="M6.96593 1.51205C7.3729 0.626923 8.62707 0.626923 9.03404 1.51205L10.6326 4.98832L14.4225 5.43905C15.3875 5.55383 15.775 6.75028 15.0616 7.41205L12.2596 10.0112L13.0034 13.7661C13.1928 14.7222 12.1782 15.4616 11.3302 14.9855L7.99998 13.1156L4.66976 14.9855C3.82181 15.4616 2.80721 14.7222 2.99659 13.7661L3.74038 10.0112L0.9384 7.41205C0.224954 6.75028 0.612502 5.55383 1.5775 5.43905L5.3674 4.98832L6.96593 1.51205ZM8.25958 2.55502C8.15758 2.33322 7.84238 2.33322 7.74038 2.55502L6.40147 5.46676C6.23558 5.82748 5.89478 6.07588 5.50148 6.12268L2.32514 6.50045C2.08329 6.52919 1.98601 6.82799 2.16457 6.99359L4.51355 9.17262C4.80432 9.44233 4.9345 9.84422 4.85732 10.2339L4.23401 13.3805C4.18662 13.6198 4.44149 13.8046 4.65416 13.6851L7.44375 12.1188C7.78935 11.9248 8.21061 11.9248 8.55621 12.1188L11.3458 13.6851C11.5585 13.8046 11.8134 13.6198 11.766 13.3805L11.1427 10.2339C11.0655 9.84422 11.1956 9.44233 11.4864 9.17262L13.8354 6.99359C14.0139 6.82799 13.9167 6.52919 13.6748 6.50045L10.4985 6.12268C10.1052 6.07588 9.76438 5.82753 9.5985 5.46676L8.25958 2.55502Z" fill="black"/>
</svg> -->

<svg width="16" height="16" viewBox="0 0 16 16" fill="none" xmlns="http://www.w3.org/2000/svg">
  <path d="M8.04923 3.13739C8.50253 2.95606 9.01573 3.04179 9.3844 3.35264L9.46682 3.42836L12.5716 6.53319C12.9169 6.87846 13.0402 7.38388 12.8998 7.84518L12.8627 7.95076L11.3083 11.8365C11.1312 12.2794 10.7279 12.5921 10.2539 12.6521L6.91588 13.0686C6.83005 13.079 6.73978 13.0914 6.64594 13.1056L6.35449 13.1532C6.3044 13.1619 6.25363 13.1709 6.20227 13.1803L5.72724 13.273L5.40152 13.3419L4.91201 13.4518L4.28407 13.6016L3.26425 13.8619L2.83968 13.9763C2.63227 14.0335 2.37891 13.9912 2.19387 13.8061C2.0294 13.6417 1.97765 13.4232 2.00842 13.231L2.03068 13.1352L2.22482 12.4044L2.39836 11.7159L2.54817 11.088L2.65806 10.5985L2.72699 10.2728L2.81965 9.79773L2.87181 9.49741L2.9143 9.21608L3.34786 5.74615C3.40335 5.30855 3.67397 4.9313 4.06362 4.73652L4.16345 4.69169L8.04923 3.13739ZM8.5374 4.35778L4.65176 5.91203L4.26792 8.98214C4.25703 9.0713 4.24644 9.15822 4.23625 9.24229C4.18552 9.66082 4.09242 10.1675 3.9837 10.6835L3.87077 11.1998L6.03175 9.03882C5.91464 8.60027 6.02809 8.11302 6.37212 7.76898C6.88545 7.25564 7.71767 7.25564 8.23095 7.76898C8.74429 8.28225 8.74429 9.11453 8.23095 9.62781C7.88697 9.97186 7.39972 10.0853 6.96123 9.96817L4.80015 12.1293L5.05797 12.0719L5.57331 11.9634C5.91381 11.8949 6.24432 11.8353 6.54149 11.7925L10.088 11.3482L11.6422 7.46259L8.5374 4.35778ZM10.0898 2.19249C10.3267 1.95558 10.6995 1.93736 10.9573 2.13782L11.0193 2.19249L13.8075 4.98076C14.0642 5.23742 14.0642 5.65353 13.8075 5.91019C13.5706 6.1471 13.1978 6.16532 12.94 5.96486L12.8781 5.91019L10.0898 3.12191C9.83315 2.86526 9.83315 2.44914 10.0898 2.19249Z" fill="black" />
</svg>
