<svg width="16" height="16" viewBox="0 0 16 16" fill="none" xmlns="http://www.w3.org/2000/svg">
  <path d="M10.3285 14H4.22092C3.44352 14 3.05483 14 2.7579 13.8501C2.49672 13.7183 2.28437 13.508 2.15129 13.2493C2 12.9551 2 12.5701 2 11.8V5.2C2 4.42992 2 4.04489 2.15129 3.75076C2.28437 3.49204 2.49672 3.28169 2.7579 3.14987C3.05483 3 3.44353 3 4.22092 3H5.2443C5.58381 3 5.75356 3 5.91331 3.03799C6.05495 3.07167 6.19035 3.12723 6.31454 3.20262C6.45462 3.28765 6.57465 3.40655 6.81473 3.64437L6.90179 3.73063C7.14186 3.96845 7.26192 4.08735 7.40198 4.17238C7.52621 4.24777 7.66162 4.30333 7.80321 4.33701C7.96297 4.375 8.13274 4.375 8.47226 4.375H9.49562C10.273 4.375 10.6617 4.375 10.9587 4.52487C11.2198 4.65669 11.4322 4.86704 11.5652 5.12576C11.7165 5.41989 11.7165 5.80492 11.7165 6.575V6.78125M6.16423 10.5625H10.3285M3.60728 8.69284C3.77766 8.13026 3.86284 7.84901 4.03142 7.64049C4.18025 7.45638 4.37436 7.31331 4.59512 7.22503C4.84518 7.125 5.14164 7.125 5.73453 7.125H11.5077C12.5193 7.125 13.0252 7.125 13.3628 7.33407C13.6585 7.51715 13.8738 7.80377 13.9659 8.13693C14.071 8.51733 13.9257 8.99727 13.6349 9.95716L12.8854 12.4319C12.7151 12.9945 12.6298 13.2757 12.4612 13.4842C12.3124 13.6684 12.1183 13.8114 11.8975 13.8997C11.6475 13.9997 11.3511 13.9997 10.7581 13.9997H3.49251C2.98667 13.9997 2.73374 13.9997 2.56493 13.8952C2.41709 13.8037 2.30945 13.6603 2.26342 13.4937C2.21085 13.3036 2.28353 13.0636 2.42889 12.5836L3.60728 8.69284Z" stroke="white" stroke-width="1.5" stroke-linecap="round"/>
</svg>
