<svg width="16" height="16" viewBox="0 0 16 16" fill="none" xmlns="http://www.w3.org/2000/svg">
  <path d="M9.70928 14.093H7.29068V15H9.70928V14.093ZM2.90697 9.70931V7.29072H2V9.70931H2.90697ZM14.093 9.44502V9.70931H15V9.44502H14.093ZM10.2481 4.03233L12.6418 6.18664L13.2485 5.51248L10.8549 3.35818L10.2481 4.03233ZM15 9.44502C15 8.42413 15.0091 7.77776 14.7515 7.1994L13.923 7.56837C14.0839 7.92953 14.093 8.34402 14.093 9.44502H15ZM12.6418 6.18664C13.4602 6.92315 13.7622 7.20727 13.923 7.56837L14.7515 7.1994C14.4939 6.62101 14.0074 6.19541 13.2485 5.51248L12.6418 6.18664ZM7.3087 2.90701C8.26513 2.90701 8.62605 2.91401 8.94772 3.03745L9.27266 2.19068C8.75762 1.99303 8.19645 2.00003 7.3087 2.00003V2.90701ZM10.8549 3.35818C10.1983 2.7672 9.7877 2.3883 9.27266 2.19068L8.94772 3.03745C9.26952 3.16092 9.54088 3.39578 10.2481 4.03233L10.8549 3.35818ZM7.29068 14.093C6.13772 14.093 5.31862 14.0921 4.69725 14.0085C4.08892 13.9267 3.73843 13.7733 3.48254 13.5175L2.84121 14.1588C3.29371 14.6113 3.86749 14.8121 4.5764 14.9074C5.27225 15.001 6.16336 15 7.29068 15V14.093ZM2 9.70931C2 10.8366 1.99904 11.7278 2.09259 12.4236C2.1879 13.1325 2.38872 13.7063 2.84121 14.1588L3.48254 13.5175C3.22665 13.2616 3.07326 12.9111 2.99148 12.3028C2.90794 11.6814 2.90697 10.8623 2.90697 9.70931H2ZM9.70928 15C10.8366 15 11.7277 15.001 12.4235 14.9074C13.1324 14.8121 13.7063 14.6113 14.1588 14.1588L13.5174 13.5175C13.2615 13.7733 12.911 13.9267 12.3027 14.0085C11.6813 14.0921 10.8622 14.093 9.70928 14.093V15ZM14.093 9.70931C14.093 10.8623 14.092 11.6814 14.0085 12.3028C13.9267 12.9111 13.7733 13.2616 13.5174 13.5175L14.1588 14.1588C14.6112 13.7063 14.812 13.1325 14.9074 12.4236C15.0009 11.7278 15 10.8366 15 9.70931H14.093ZM2.90697 7.29072C2.90697 6.13776 2.90794 5.31866 2.99148 4.69728C3.07326 4.08895 3.22665 3.73847 3.48254 3.48257L2.84121 2.84124C2.38872 3.29375 2.1879 3.86752 2.09259 4.57643C1.99904 5.27229 2 6.16339 2 7.29072H2.90697ZM7.3087 2.00003C6.17533 2.00003 5.27987 1.99908 4.58117 2.09258C3.86977 2.1878 3.29406 2.3884 2.84121 2.84124L3.48254 3.48257C3.73808 3.22703 4.08964 3.07344 4.70148 2.99155C5.32603 2.90796 6.14978 2.90701 7.3087 2.90701V2.00003Z" fill="white"/>
  <path fill-rule="evenodd" clip-rule="evenodd" d="M9.5 2.5V4.66667C9.5 5.46417 9.50074 6.02029 9.54774 6.43978C9.59401 6.85281 9.67866 7.05706 9.79087 7.19174C9.89215 7.31326 10.0293 7.39629 10.3334 7.44536C10.6627 7.49848 11.1062 7.5 11.7778 7.5H14.5V8.5L11.7374 8.5C11.1172 8.50003 10.5923 8.50006 10.1742 8.4326C9.72189 8.35963 9.32824 8.19859 9.02268 7.83196C8.72813 7.47848 8.60937 7.04578 8.55396 6.55112C8.49998 6.06936 8.49999 5.45696 8.5 4.69731V2.5H9.5Z" fill="white"/>
  <path d="M10.5515 3.69526L10.2481 4.03233M10.2481 4.03233L12.6418 6.18664M10.2481 4.03233L10.8549 3.35818M10.2481 4.03233C9.54088 3.39578 9.26952 3.16092 8.94772 3.03745M12.9452 5.84956L12.6418 6.18664M12.6418 6.18664L13.2485 5.51248M12.6418 6.18664C13.4602 6.92315 13.7622 7.20727 13.923 7.56837M14.3373 7.38389L13.923 7.56837M13.923 7.56837L14.7515 7.1994M13.923 7.56837C14.0839 7.92953 14.093 8.34402 14.093 9.44502M3.16188 13.8381L3.48254 13.5175M3.48254 13.5175C3.73843 13.7733 4.08892 13.9267 4.69725 14.0085C5.31862 14.0921 6.13772 14.093 7.29068 14.093M3.48254 13.5175L2.84121 14.1588M3.48254 13.5175C3.22665 13.2616 3.07326 12.9111 2.99148 12.3028C2.90794 11.6814 2.90697 10.8623 2.90697 9.70931M13.8381 13.8381L13.5174 13.5175M13.5174 13.5175L14.1588 14.1588M13.5174 13.5175C13.2615 13.7733 12.911 13.9267 12.3027 14.0085C11.6813 14.0921 10.8622 14.093 9.70928 14.093M13.5174 13.5175C13.7733 13.2616 13.9267 12.9111 14.0085 12.3028C14.092 11.6814 14.093 10.8623 14.093 9.70931M9.70928 14.093H7.29068M9.70928 14.093V15M7.29068 14.093V15M7.29068 15H9.70928M7.29068 15C6.16336 15 5.27225 15.001 4.5764 14.9074C3.86749 14.8121 3.29371 14.6113 2.84121 14.1588M9.70928 15C10.8366 15 11.7277 15.001 12.4235 14.9074C13.1324 14.8121 13.7063 14.6113 14.1588 14.1588M2.90697 9.70931V7.29072M2.90697 9.70931H2M2.90697 7.29072H2M2.90697 7.29072C2.90697 6.13776 2.90794 5.31866 2.99148 4.69728C3.07326 4.08895 3.22665 3.73847 3.48254 3.48257M2 7.29072V9.70931M2 7.29072C2 6.16339 1.99904 5.27229 2.09259 4.57643C2.1879 3.86752 2.38872 3.29375 2.84121 2.84124M2 9.70931C2 10.8366 1.99904 11.7278 2.09259 12.4236C2.1879 13.1325 2.38872 13.7063 2.84121 14.1588M14.093 9.44502V9.70931M14.093 9.44502H15M14.093 9.70931H15M15 9.70931V9.44502M15 9.70931C15 10.8366 15.0009 11.7278 14.9074 12.4236C14.812 13.1325 14.6112 13.7063 14.1588 14.1588M15 9.44502C15 8.42413 15.0091 7.77776 14.7515 7.1994M13.2485 5.51248L10.8549 3.35818M13.2485 5.51248C14.0074 6.19541 14.4939 6.62101 14.7515 7.1994M10.8549 3.35818C10.1983 2.7672 9.7877 2.3883 9.27266 2.19068M7.3087 2.90701C8.26513 2.90701 8.62605 2.91401 8.94772 3.03745M7.3087 2.90701V2.00003M7.3087 2.90701C6.14978 2.90701 5.32603 2.90796 4.70148 2.99155C4.08964 3.07344 3.73808 3.22703 3.48254 3.48257M8.94772 3.03745L9.27266 2.19068M9.27266 2.19068C8.75762 1.99303 8.19645 2.00003 7.3087 2.00003M7.3087 2.00003C6.17533 2.00003 5.27987 1.99908 4.58117 2.09258C3.86977 2.1878 3.29406 2.3884 2.84121 2.84124M3.48254 3.48257L2.84121 2.84124M9.5 2.5H8.5V4.69731C8.49999 5.45696 8.49998 6.06936 8.55396 6.55112C8.60937 7.04578 8.72813 7.47848 9.02268 7.83196C9.32824 8.19859 9.72189 8.35963 10.1742 8.4326C10.5923 8.50006 11.1172 8.50003 11.7374 8.5L14.5 8.5V7.5H11.7778C11.1062 7.5 10.6627 7.49848 10.3334 7.44536C10.0293 7.39629 9.89215 7.31326 9.79087 7.19174C9.67866 7.05706 9.59401 6.85281 9.54774 6.43978C9.50074 6.02029 9.5 5.46417 9.5 4.66667V2.5Z" stroke="white" stroke-width="0.5"/>
</svg>
