<!-- <svg width="14" height="14" viewBox="-100 -200 1000 1100" xmlns="http://www.w3.org/2000/svg" transform="scale(1 -1)">
<path d="M0 168q0 81 68 118-68 35-68 116l0 91q0 75 54 129t129 54l38 0q7 77 70 130t152 52 151-52 70-130l39 0q75 0 128-54t54-129l0-91q0-81-67-118 67-35 67-116l0-144q0-75-54-129t-128-53l-143 0q-81 0-117 67-35-67-118-67l-142 0q-75 0-129 53t-54 129l0 144z m781-144l0 144q0 25-18 25-13 0-30-12t-43-13q-37 0-64 34t-27 84 27 82 64 34q28 0 51-20 9-6 20-6 20 0 20 26l0 91q0 33-23 56t-55 23l-143 0q-16 0-23 9t3 31q20 24 20 51 0 38-34 64t-83 26-84-26-34-64q0-21 14-44 17-26 11-37t-25-10l-142 0q-33 0-56-23t-23-56l0-91q0-26 20-26 9 0 29 13 17 13 42 13 38 0 64-34t27-82-27-84-64-34q-27 0-51 20-10 6-20 6-20 0-20-26l0-144q0-31 23-54t56-23l142 0q19 0 24 10t-10 37q-14 20-14 44 0 38 34 64t84 26 83-26 34-64q0-27-20-51-10-22-3-31t23-9l143 0q32 0 55 23t23 54z m-677 303l0-83q6 3 20 3 32 0 55-20 7-8 16-8 15 0 28 20t12 47-12 46-28 19q-2 0-17-8-29-19-54-19-8 0-20 3z m659-81q6 0 18-3l0 83q-6-3-20-3-31 0-53 20-8 8-18 8-15 0-27-19t-12-46 12-47 27-20q4 0 19 8 29 19 54 19z m-363-299l84 0q-13 41 16 74 8 7 8 17 0 15-19 27t-46 12-47-12-18-27q0-4 7-19 25-36 15-72z" />
</svg> -->
<svg width="16" height="16" viewBox="0 0 16 16" fill="none" xmlns="http://www.w3.org/2000/svg">
  <path d="M2 10.5078C2 9.76372 2.33296 9.22174 2.99887 8.88186C2.33296 8.56035 2 8.02756 2 7.28349V6.0296C2 5.34065 2.26441 4.74815 2.79322 4.25211C3.32203 3.75606 3.95367 3.50804 4.68814 3.50804H5.24633C5.31488 2.80071 5.65763 2.20362 6.27458 1.71676C6.89153 1.22991 7.63578 0.991069 8.50734 1.00025C9.37891 1.00944 10.1183 1.24828 10.7254 1.71676C11.3326 2.18525 11.6753 2.78234 11.7537 3.50804H12.3266C13.061 3.50804 13.6878 3.75606 14.2068 4.25211C14.7258 4.74815 14.9902 5.34065 15 6.0296V7.28349C15 8.02756 14.6719 8.56954 14.0158 8.90942C14.6719 9.23093 15 9.76372 15 10.5078V12.492C15 13.1809 14.7356 13.7734 14.2068 14.2695C13.678 14.7655 13.0512 15.0089 12.3266 14.9997H10.226C9.43277 14.9997 8.85989 14.692 8.50734 14.0766C8.1646 14.692 7.58682 14.9997 6.77401 14.9997H4.68814C3.95367 14.9997 3.32203 14.7563 2.79322 14.2695C2.26441 13.7826 2 13.1901 2 12.492V10.5078ZM13.4723 12.492V10.5078C13.4723 10.2781 13.3842 10.1633 13.2079 10.1633C13.0806 10.1633 12.9337 10.2184 12.7672 10.3287C12.6008 10.4389 12.3902 10.4986 12.1356 10.5078C11.7733 10.5078 11.4599 10.3516 11.1955 10.0393C10.9311 9.72697 10.7989 9.34116 10.7989 8.88186C10.7989 8.42256 10.9311 8.04593 11.1955 7.75198C11.4599 7.45803 11.7733 7.30186 12.1356 7.28349C12.4098 7.28349 12.6595 7.37535 12.8847 7.55907C12.9729 7.61419 13.0708 7.64175 13.1785 7.64175C13.3744 7.64175 13.4723 7.52233 13.4723 7.28349V6.0296C13.4723 5.72646 13.3597 5.46925 13.1345 5.25798C12.9092 5.0467 12.6399 4.94106 12.3266 4.94106H10.226C10.0693 4.94106 9.95669 4.89972 9.88814 4.81705C9.81959 4.73437 9.83428 4.59199 9.9322 4.3899C10.1281 4.16943 10.226 3.93519 10.226 3.68717C10.226 3.3381 10.0595 3.04414 9.72655 2.80531C9.3936 2.56647 8.98719 2.44705 8.50734 2.44705C8.0275 2.44705 7.6162 2.56647 7.27345 2.80531C6.9307 3.04414 6.76422 3.3381 6.77401 3.68717C6.77401 3.88007 6.84256 4.08216 6.97966 4.29344C7.14614 4.53228 7.2 4.70222 7.14124 4.80327C7.08249 4.90431 6.96008 4.95024 6.77401 4.94106H4.68814C4.36497 4.94106 4.09077 5.0467 3.86554 5.25798C3.6403 5.46925 3.52768 5.72646 3.52768 6.0296V7.28349C3.52768 7.52233 3.62561 7.64175 3.82147 7.64175C3.9096 7.64175 4.0516 7.58204 4.24746 7.46262C4.41394 7.3432 4.61959 7.28349 4.86441 7.28349C5.23653 7.28349 5.54991 7.43965 5.80452 7.75198C6.05913 8.0643 6.19134 8.44093 6.20113 8.88186C6.21092 9.32279 6.07872 9.7086 5.80452 10.0393C5.53032 10.37 5.21695 10.5262 4.86441 10.5078C4.6 10.5078 4.35028 10.4159 4.11525 10.2322C4.01733 10.1771 3.9194 10.1495 3.82147 10.1495C3.62561 10.1495 3.52768 10.2689 3.52768 10.5078V12.492C3.52768 12.7767 3.6403 13.0248 3.86554 13.236C4.09077 13.4473 4.36497 13.553 4.68814 13.553H6.77401C6.96008 13.553 7.07759 13.507 7.12655 13.4152C7.17552 13.3233 7.12655 13.1534 6.97966 12.9053C6.84256 12.7216 6.77401 12.5195 6.77401 12.2991C6.77401 11.95 6.94049 11.656 7.27345 11.4172C7.6064 11.1784 8.0177 11.0589 8.50734 11.0589C8.99699 11.0589 9.40339 11.1784 9.72655 11.4172C10.0497 11.656 10.2162 11.95 10.226 12.2991C10.226 12.5471 10.1281 12.7813 9.9322 13.0018C9.83428 13.2039 9.81959 13.3463 9.88814 13.4289C9.95669 13.5116 10.0693 13.553 10.226 13.553H12.3266C12.6399 13.553 12.9092 13.4473 13.1345 13.236C13.3597 13.0248 13.4723 12.7767 13.4723 12.492ZM3.52768 8.31692V9.46058C3.58644 9.43302 3.68437 9.41924 3.82147 9.41924C4.13484 9.41924 4.40414 9.5111 4.62938 9.69482C4.69793 9.76831 4.77627 9.80506 4.86441 9.80506C5.0113 9.80506 5.1484 9.71319 5.27571 9.52947C5.40301 9.34575 5.46177 9.12988 5.45198 8.88186C5.44218 8.63384 5.38343 8.42256 5.27571 8.24802C5.16798 8.07349 5.03089 7.98622 4.86441 7.98622C4.84482 7.98622 4.76158 8.02297 4.61469 8.09646C4.3307 8.27099 4.06629 8.35826 3.82147 8.35826C3.74313 8.35826 3.6452 8.34448 3.52768 8.31692ZM13.2079 9.43302C13.2667 9.43302 13.3548 9.4468 13.4723 9.47436V8.3307C13.4136 8.35826 13.3156 8.37204 13.1785 8.37204C12.875 8.37204 12.6154 8.28018 12.4 8.09646C12.3217 8.02297 12.2335 7.98622 12.1356 7.98622C11.9887 7.98622 11.8565 8.07349 11.739 8.24802C11.6215 8.42256 11.5627 8.63384 11.5627 8.88186C11.5627 9.12988 11.6215 9.34575 11.739 9.52947C11.8565 9.71319 11.9887 9.80506 12.1356 9.80506C12.1748 9.80506 12.2678 9.76831 12.4147 9.69482C12.6987 9.52029 12.9631 9.43302 13.2079 9.43302ZM7.87571 13.553H9.1096C8.9823 13.1763 9.06064 12.8364 9.34463 12.5333C9.42298 12.469 9.46215 12.3909 9.46215 12.2991C9.46215 12.1613 9.36911 12.0373 9.18305 11.927C8.99699 11.8168 8.77175 11.7617 8.50734 11.7617C8.24294 11.7617 8.01281 11.8168 7.81695 11.927C7.62109 12.0373 7.53296 12.1613 7.55254 12.2991C7.55254 12.3358 7.58682 12.4231 7.65537 12.5609C7.90019 12.8916 7.97363 13.2223 7.87571 13.553Z" fill="black"/>
</svg>
