<!-- <svg width="16" height="16" viewBox="0 0 16 16" fill="none" xmlns="http://www.w3.org/2000/svg">
  <path d="M9.17356 6.4343C9.37788 6.178 9.5 5.85326 9.5 5.5C9.5 4.67157 8.82843 4 8 4C7.17157 4 6.5 4.67157 6.5 5.5C6.5 5.85326 6.62212 6.178 6.82644 6.4343L5.82571 8.03546C5.72085 8.01224 5.61185 8 5.5 8C4.67157 8 4 8.67157 4 9.5C4 10.3284 4.67157 11 5.5 11C6.32843 11 7 10.3284 7 9.5C7 9.14674 6.87788 8.822 6.67356 8.5657L7.67429 6.96454C7.77915 6.98776 7.88815 7 8 7C8.11185 7 8.22085 6.98776 8.32571 6.96454L9.32644 8.5657C9.12212 8.822 9 9.14674 9 9.5C9 10.3284 9.67157 11 10.5 11C11.3284 11 12 10.3284 12 9.5C12 8.67157 11.3284 8 10.5 8C10.3881 8 10.2792 8.01224 10.1743 8.03546L9.17356 6.4343Z" fill="black"/>
  <path fill-rule="evenodd" clip-rule="evenodd" d="M0.25 8C0.25 3.71979 3.71979 0.25 8 0.25C12.2802 0.25 15.75 3.71979 15.75 8C15.75 12.2802 12.2802 15.75 8 15.75C3.71979 15.75 0.25 12.2802 0.25 8ZM8 1.75C4.54822 1.75 1.75 4.54822 1.75 8C1.75 11.4518 4.54822 14.25 8 14.25C11.4518 14.25 14.25 11.4518 14.25 8C14.25 4.54822 11.4518 1.75 8 1.75Z" fill="black"/>
</svg> -->


<!-- <svg width="16" height="16" viewBox="0 0 16 16" fill="none" xmlns="http://www.w3.org/2000/svg">
  <path d="M9.5 5.65217V4.86957H8.75C8.48488 4.86988 8.2307 4.97992 8.04323 5.17554C7.85576 5.37117 7.7503 5.6364 7.75 5.91304V10.087C7.7503 10.3636 7.85576 10.6288 8.04323 10.8245C8.2307 11.02 8.48488 11.1301 8.75 11.1304H9.5V10.3478C9.5003 10.0712 9.60576 9.80595 9.7932 9.61033C9.9807 9.41471 10.2349 9.30466 10.5 9.30435H13C13.2651 9.30466 13.5193 9.41471 13.7068 9.61033C13.8942 9.80595 13.9997 10.0712 14 10.3478V12.9565C13.9997 13.2331 13.8942 13.4984 13.7068 13.6941C13.5193 13.8896 13.2651 13.9997 13 14H10.5C10.2349 13.9997 9.9807 13.8896 9.7932 13.6941C9.60576 13.4984 9.5003 13.2331 9.5 12.9565V12.1739H8.75C8.21975 12.1733 7.71139 11.9532 7.33645 11.5619C6.96151 11.1707 6.7506 10.6402 6.75 10.087V8.52174H5V9.04348C4.9997 9.32013 4.89424 9.58536 4.70677 9.78098C4.5193 9.9766 4.26512 10.0866 4 10.087H2C1.73488 10.0866 1.4807 9.9766 1.29323 9.78098C1.10576 9.58536 1.0003 9.32013 1 9.04348V6.95652C1.0003 6.67987 1.10576 6.41464 1.29323 6.21902C1.4807 6.0234 1.73488 5.91336 2 5.91304H4C4.26512 5.91336 4.5193 6.0234 4.70677 6.21902C4.89424 6.41464 4.9997 6.67987 5 6.95652V7.47826H6.75V5.91304C6.7506 5.35974 6.96151 4.82928 7.33645 4.43803C7.71139 4.04679 8.21975 3.82671 8.75 3.82609H9.5V3.04348C9.5003 2.76683 9.60576 2.5016 9.7932 2.30598C9.9807 2.11036 10.2349 2.00031 10.5 2H13C13.2651 2.00031 13.5193 2.11036 13.7068 2.30598C13.8942 2.5016 13.9997 2.76683 14 3.04348V5.65217C13.9997 5.92882 13.8942 6.19405 13.7068 6.38967C13.5193 6.58529 13.2651 6.69534 13 6.69565H10.5C10.2349 6.69534 9.9807 6.58529 9.7932 6.38967C9.60576 6.19405 9.5003 5.92882 9.5 5.65217Z" fill="black" />
</svg> -->

<svg width="16" height="16" viewBox="0 0 16 16" fill="none" xmlns="http://www.w3.org/2000/svg">
  <path d="M8.72 10.75L8.72 13.75C8.72035 14.0814 8.84689 14.3991 9.07186 14.6335C9.29683 14.8678 9.60185 14.9996 9.92 15L12.8 15C13.1182 14.9996 13.4232 14.8678 13.6481 14.6335C13.8731 14.3991 13.9996 14.0814 14 13.75L14 10.75C13.9996 10.4186 13.8731 10.1009 13.6481 9.86652C13.4232 9.63218 13.1182 9.50037 12.8 9.5L12.08 9.5L12.08 9.25C12.0794 8.65347 11.8516 8.08156 11.4466 7.65975C11.0417 7.23794 10.4927 7.00067 9.92 7L8.72 7L8.72 6L9.2 6C9.51815 5.99963 9.82317 5.86782 10.0481 5.63348C10.2731 5.39914 10.3996 5.08141 10.4 4.75L10.4 2.25C10.3996 1.91859 10.2731 1.60086 10.0481 1.36652C9.82317 1.13218 9.51815 1.00037 9.2 1L6.8 1C6.48185 1.00037 6.17683 1.13218 5.95184 1.36652C5.72691 1.60086 5.60038 1.91859 5.6 2.25L5.6 4.75C5.60038 5.08141 5.72691 5.39914 5.95184 5.63348C6.17683 5.86782 6.48185 5.99963 6.8 6L7.28 6L7.28 7L6.08 7C5.50736 7.00067 4.95834 7.23794 4.55341 7.65975C4.14838 8.08156 3.92067 8.65347 3.92 9.25L3.92 9.5L3.2 9.5C2.88186 9.50037 2.57686 9.63218 2.35184 9.86652C2.12691 10.1009 2.00038 10.4186 2 10.75L2 13.75C2.00038 14.0814 2.12691 14.3991 2.35184 14.6335C2.57686 14.8678 2.88186 14.9996 3.2 15L6.08 15C6.39815 14.9996 6.70317 14.8678 6.92814 14.6335C7.15311 14.3991 7.27964 14.0814 7.28 13.75L7.28 10.75C7.27964 10.4186 7.15311 10.1009 6.92814 9.86652C6.70317 9.63218 6.39815 9.50037 6.08 9.5L5.36 9.5L5.36 9.25C5.36019 9.05116 5.43613 8.86052 5.5711 8.71992C5.70608 8.57931 5.88915 8.50022 6.08 8.5L9.92 8.5C10.1109 8.50022 10.2939 8.57931 10.4289 8.71992C10.5639 8.86052 10.6398 9.05116 10.64 9.25L10.64 9.5L9.92 9.5C9.60185 9.50037 9.29683 9.63218 9.07186 9.86652C8.84689 10.1009 8.72035 10.4186 8.72 10.75ZM7.04 4.5L7.04 2.5L8.96 2.5L8.96 4.5L7.04 4.5ZM5.84 11L5.84 13.5L3.44 13.5L3.44 11L5.84 11ZM12.56 11L12.56 13.5L10.16 13.5L10.16 11L12.56 11Z" fill="black" />
</svg>
