<!-- <svg width="16" height="16" viewBox="0 0 16 16" fill="none" xmlns="http://www.w3.org/2000/svg">
  <path d="M8 11L10 7.99999H6L8 5M8 15C11.866 15 15 11.866 15 8C15 4.13401 11.866 1 8 1C4.13401 1 1 4.13401 1 8C1 11.866 4.13401 15 8 15Z" stroke="black" stroke-width="1.5" stroke-linecap="round" stroke-linejoin="round"/>
</svg> -->

<svg width="16" height="16" viewBox="0 0 16 16" fill="none" xmlns="http://www.w3.org/2000/svg">
  <path d="M12.0385 6.27244L6.00774 2.75452C4.67443 1.97675 3 2.93849 3 4.48207V11.5179C3 13.0615 4.67443 14.0233 6.00774 13.2455L12.0385 9.72756C13.3615 8.9558 13.3615 7.0442 12.0385 6.27244Z" stroke="black" stroke-width="1.5"/>
</svg>
