<!-- <svg xmlns="http://www.w3.org/2000/svg" width="14" height="14" transform="scale(1 -1)" viewBox="-100 -100 900 900">
  <path d="M686 208q14 20 14-2V106q0-74-104-135T350-90q-140 0-245 61T0 106v100q0 8 4 10t10-8q32-52 125-86t211-34 211 34 125 86zm2 254q8 16 12 0V346q0-68-102-114t-248-46q-144 0-247 46T0 346v116q0 20 14 0 30-46 124-75t212-29 212 29 126 75zM350 790q144 0 247-39t103-93v-64q0-58-103-99t-247-41-247 41T0 594v64q0 54 103 93t247 39z"/>
</svg> -->

<!-- <svg width="16" height="16" viewBox="0 0 16 16" fill="none" xmlns="http://www.w3.org/2000/svg">
  <path d="M13.76 10.2591C13.92 10.047 14 10.0576 14 10.2909V11.8818C14 12.6667 13.4057 13.3826 12.2171 14.0295C11.0286 14.6765 9.62286 15 8 15C6.4 15 5 14.6765 3.8 14.0295C2.6 13.3826 2 12.6667 2 11.8818V10.2909C2 10.2061 2.02286 10.153 2.06857 10.1318C2.11429 10.1106 2.17143 10.153 2.24 10.2591C2.60571 10.8106 3.32 11.2667 4.38286 11.6273C5.44571 11.9879 6.65143 12.1682 8 12.1682C9.34857 12.1682 10.5543 11.9879 11.6171 11.6273C12.68 11.2667 13.3943 10.8106 13.76 10.2591ZM13.7943 6.21818C13.8857 6.04848 13.9543 6.04848 14 6.21818V8.06364C14 8.78485 13.4171 9.38939 12.2514 9.87727C11.0857 10.3652 9.66857 10.6091 8 10.6091C6.35429 10.6091 4.94286 10.3652 3.76571 9.87727C2.58857 9.38939 2 8.78485 2 8.06364V6.21818C2 6.00606 2.08 6.00606 2.24 6.21818C2.58286 6.70606 3.29143 7.10379 4.36571 7.41136C5.44 7.71894 6.65143 7.87273 8 7.87273C9.34857 7.87273 10.56 7.71894 11.6343 7.41136C12.7086 7.10379 13.4286 6.70606 13.7943 6.21818ZM8 1C9.64571 1 11.0571 1.20682 12.2343 1.62045C13.4114 2.03409 14 2.52727 14 3.1V4.11818C14 4.73333 13.4114 5.25833 12.2343 5.69318C11.0571 6.12803 9.64571 6.34545 8 6.34545C6.35429 6.34545 4.94286 6.12803 3.76571 5.69318C2.58857 5.25833 2 4.73333 2 4.11818V3.1C2 2.52727 2.58857 2.03409 3.76571 1.62045C4.94286 1.20682 6.35429 1 8 1Z" fill="black" />
</svg> -->

<svg width="16" height="16" viewBox="0 0 16 16" fill="none" xmlns="http://www.w3.org/2000/svg">
  <path d="M13 8V11.75C13 12.9927 10.7614 14 8 14C5.23857 14 3 12.9927 3 11.75V8M13 8V4.25M13 8C13 9.24268 10.7614 10.25 8 10.25C5.23857 10.25 3 9.24268 3 8M3 8V4.25M13 4.25C13 3.00736 10.7614 2 8 2C5.23857 2 3 3.00736 3 4.25M13 4.25C13 5.49264 10.7614 6.5 8 6.5C5.23857 6.5 3 5.49264 3 4.25" stroke="black" stroke-width="1.5" stroke-linecap="round" stroke-linejoin="round"/>
</svg>
