<svg width="16" height="16" viewBox="0 0 16 16" fill="none" xmlns="http://www.w3.org/2000/svg">
  <path d="M2 8.5C2 11.5641 2 13.0962 2.95191 14.0481C3.9038 15 5.43587 15 8.5 15C11.5641 15 13.0962 15 14.0481 14.0481C15 13.0962 15 12.2143 15 10.3571M7.57143 2C4.5073 2 3.9038 2 2.95191 2.95191C2.31897 3.58484 2.10689 4.47426 2.03581 5.9" stroke="black" stroke-width="1.5" stroke-linecap="round"/>
  <path d="M9.51227 3.05144C10.9964 1.64952 13.4027 1.64952 14.8869 3.05144C16.371 4.45336 16.371 6.72635 14.8869 8.12827C13.7893 9.16505 12.1883 9.43434 10.8294 8.93907L10.672 8.87846L10.6605 8.87579H10.3037V9.74751C10.3037 10.105 10.0161 10.399 9.64756 10.4343L9.57284 10.4379H8.64996V11.3096C8.64996 11.6671 8.36236 11.9611 7.99383 11.9964L7.91911 12H5.59053C5.28618 12 5.03553 11.7824 5.00347 11.503L5 11.4422V10C5 9.80773 5.07075 9.62238 5.19862 9.47497L5.25688 9.41421L8.473 6.37626L8.47836 6.35568C8.47987 6.34428 8.48014 6.32887 8.47629 6.31103C8.22981 5.17114 8.57441 3.93735 9.51227 3.05144ZM11.9929 4.61356C11.6504 4.93708 11.6504 5.46162 11.9929 5.78513C12.3354 6.10866 12.8907 6.10866 13.2332 5.78513C13.5757 5.46162 13.5757 4.93708 13.2332 4.61356C12.8907 4.29005 12.3354 4.29005 11.9929 4.61356Z" fill="black"/>
</svg>
