<!-- <svg width="16" height="16" viewBox="0 0 16 16" fill="none" xmlns="http://www.w3.org/2000/svg">
  <path d="M3 3H12.9999V5.35684H11.2268V4.70732H6.79833L9.6628 8L6.79833 11.2927H11.2268V10.6432H13V13H3L7.34971 8L3 3Z" fill="black"/>
</svg> -->

<svg width="16" height="16" viewBox="0 0 16 16" fill="none" xmlns="http://www.w3.org/2000/svg">
  <path fill-rule="evenodd" clip-rule="evenodd" d="M2.66665 1.33334H13.3333C14.0697 1.33334 14.6666 1.9303 14.6666 2.66668V13.3333C14.6666 14.0697 14.0697 14.6667 13.3333 14.6667H2.66665C1.93027 14.6667 1.33331 14.0697 1.33331 13.3333V2.66668C1.33331 1.9303 1.93027 1.33334 2.66665 1.33334ZM5.3333 11.3333H10.6666C10.8434 11.3333 11.013 11.2631 11.138 11.1381C11.2631 11.013 11.3333 10.8435 11.3333 10.6667C11.3333 10.4898 11.2631 10.3203 11.138 10.1953C11.013 10.0702 10.8434 9.99999 10.6666 9.99999H6.93997L8.4733 8.47332C8.53579 8.41135 8.58539 8.33761 8.61923 8.25637C8.65308 8.17513 8.6705 8.088 8.6705 7.99999C8.6705 7.91198 8.65308 7.82484 8.61923 7.74361C8.58539 7.66237 8.53579 7.58863 8.4733 7.52666L6.93997 5.99999H10.6666C10.8434 5.99999 11.013 5.92975 11.138 5.80473C11.2631 5.6797 11.3333 5.51013 11.3333 5.33332C11.3333 5.15651 11.2631 4.98694 11.138 4.86192C11.013 4.73689 10.8434 4.66666 10.6666 4.66666H5.3333C5.20169 4.66731 5.07321 4.70692 4.96406 4.78047C4.85492 4.85403 4.76998 4.95824 4.71997 5.07999C4.66892 5.2014 4.65497 5.33521 4.67989 5.46453C4.7048 5.59386 4.76747 5.71291 4.85997 5.80666L7.05997 7.99999L4.85997 10.1933C4.76747 10.2871 4.7048 10.4061 4.67989 10.5354C4.65497 10.6648 4.66892 10.7986 4.71997 10.92C4.76998 11.0417 4.85492 11.146 4.96406 11.2195C5.07321 11.2931 5.20169 11.3327 5.3333 11.3333Z" fill="black"/>
</svg>
