<!-- <svg width="14" height="14" viewBox="0 -100 1000 900" xmlns="http://www.w3.org/2000/svg" transform="scale(1 -1)">
<path d="M304 89q-44 0-74 30l-230 230 230 230q31 32 74 32t74-32q31-31 31-73t-31-74l-83-83 83-82q31-31 31-74t-31-74q-30-30-74-30z m399 0q-44 0-74 30-31 32-31 74t31 74l82 82-82 83q-31 31-31 74t31 73q30 32 73 32t74-32l230-230-230-230q-30-30-73-30z" />
</svg> -->
<!-- <svg width="16" height="16" viewBox="0 0 16 16" fill="none" xmlns="http://www.w3.org/2000/svg">
  <path d="M5.23062 4C4.8224 4 4.47913 4.15326 4.2008 4.45977L1 7.98467L4.2008 11.5096C4.4884 11.8365 4.83168 12 5.23062 12C5.62956 12 5.97283 11.8365 6.26044 11.5096C6.54804 11.1928 6.69185 10.8199 6.69185 10.3908C6.69185 9.96169 6.54804 9.58365 6.26044 9.2567L5.10537 7.98467L6.26044 6.72797C6.54804 6.41124 6.69185 6.03321 6.69185 5.59387C6.69185 5.15453 6.54804 4.7765 6.26044 4.45977C5.98211 4.15326 5.63883 4 5.23062 4ZM10.7833 4C10.3751 4 10.0318 4.15326 9.75348 4.45977C9.46587 4.78672 9.32207 5.16475 9.32207 5.59387C9.32207 6.02299 9.46587 6.40102 9.75348 6.72797L10.8946 7.98467L9.75348 9.2567C9.46587 9.57344 9.32207 9.95147 9.32207 10.3908C9.32207 10.8301 9.46587 11.2031 9.75348 11.5096C10.0318 11.8365 10.3704 12 10.7694 12C11.1683 12 11.5116 11.8365 11.7992 11.5096L15 7.98467L11.7992 4.45977C11.5209 4.15326 11.1822 4 10.7833 4Z" fill="black"/>
</svg> -->


<!-- <svg width="16" height="16" viewBox="0 0 16 16" fill="none" xmlns="http://www.w3.org/2000/svg">
  <path fill-rule="evenodd" clip-rule="evenodd" d="M2.30963 2.30966C1.33331 3.28596 1.33331 4.85731 1.33331 8.00001C1.33331 11.1427 1.33331 12.7141 2.30963 13.6903C3.28593 14.6667 4.85728 14.6667 7.99998 14.6667C11.1426 14.6667 12.714 14.6667 13.6903 13.6903C14.6666 12.7141 14.6666 11.1427 14.6666 8.00001C14.6666 4.85731 14.6666 3.28596 13.6903 2.30966C12.714 1.33334 11.1426 1.33334 7.99998 1.33334C4.85728 1.33334 3.28593 1.33334 2.30963 2.30966ZM8.99205 4.29728C9.25878 4.36875 9.41705 4.64292 9.34558 4.90966L7.62011 11.3491C7.54865 11.6159 7.27445 11.7742 7.00771 11.7027C6.74098 11.6312 6.58271 11.3571 6.65419 11.0903L8.37965 4.65084C8.45111 4.3841 8.72531 4.22581 8.99205 4.29728ZM9.97978 5.64646C10.175 5.4512 10.4916 5.4512 10.6868 5.64646L10.8258 5.78535C11.2493 6.20888 11.6025 6.56206 11.8452 6.88014C12.1014 7.21588 12.281 7.57061 12.281 8.00001C12.281 8.42941 12.1014 8.78414 11.8452 9.11988C11.6025 9.43794 11.2493 9.79114 10.8258 10.2147L10.6868 10.3535C10.4916 10.5488 10.175 10.5488 9.97978 10.3535C9.78451 10.1583 9.78451 9.84174 9.97978 9.64648L10.0941 9.53208C10.5486 9.07761 10.8531 8.77161 11.0502 8.51328C11.2384 8.26654 11.281 8.12288 11.281 8.00001C11.281 7.87714 11.2384 7.73348 11.0502 7.48674C10.8531 7.22841 10.5486 6.92241 10.0941 6.46795L9.97978 6.35356C9.78451 6.1583 9.78451 5.84172 9.97978 5.64646ZM5.31322 5.64646C5.50848 5.4512 5.82506 5.4512 6.02033 5.64646C6.21559 5.84172 6.21559 6.1583 6.02033 6.35356L5.90594 6.46795C5.45151 6.92241 5.14699 7.22841 4.9499 7.48674C4.76161 7.73348 4.71905 7.87714 4.71905 8.00001C4.71905 8.12288 4.76161 8.26654 4.9499 8.51328C5.14699 8.77161 5.45151 9.07761 5.90594 9.53208L6.02033 9.64648C6.21559 9.84174 6.21559 10.1583 6.02033 10.3535C5.82506 10.5488 5.50848 10.5488 5.31322 10.3535L5.17432 10.2147C4.75076 9.79114 4.39757 9.43794 4.15488 9.11988C3.89872 8.78414 3.71905 8.42941 3.71905 8.00001C3.71905 7.57061 3.89872 7.21588 4.15488 6.88014C4.39757 6.56206 4.75076 6.20888 5.17432 5.78535L5.31322 5.64646Z" fill="black"/>
</svg> -->

<!-- <svg width="16" height="16" viewBox="0 0 16 16" fill="none" xmlns="http://www.w3.org/2000/svg">
  <path d="M4.62326 4.85907C4.44491 4.71798 4.21517 4.6499 3.98428 4.66973C3.75339 4.68956 3.54013 4.79568 3.39116 4.96489L1.20379 7.4653C1.07214 7.61496 1 7.80398 1 7.99923C1 8.19449 1.07214 8.38351 1.20379 8.53317L3.39116 11.0336C3.46454 11.1183 3.55477 11.1883 3.65666 11.2397C3.75855 11.291 3.87009 11.3227 3.98488 11.3329C4.09966 11.343 4.21542 11.3315 4.3255 11.2989C4.43558 11.2663 4.53781 11.2133 4.62632 11.1429C4.71482 11.0725 4.78785 10.9862 4.84121 10.8889C4.89456 10.7915 4.9272 10.6851 4.93723 10.5757C4.94726 10.4663 4.9345 10.3561 4.89967 10.2514C4.86484 10.1467 4.80863 10.0496 4.73428 9.9657L3.01349 7.99926L4.73432 6.03279C4.88293 5.86309 4.95471 5.64413 4.93388 5.42403C4.91306 5.20393 4.80133 5.00072 4.62326 4.85907Z" fill="black"/>
  <path d="M9.04582 3.01469C8.81854 2.9737 8.58345 3.01929 8.39108 3.14166C8.19871 3.26404 8.06442 3.45342 8.01708 3.66911L6.26719 12.0038C6.24449 12.1111 6.24427 12.2217 6.26654 12.3291C6.28881 12.4365 6.33314 12.5387 6.39697 12.6297C6.4608 12.7208 6.54288 12.7989 6.6385 12.8596C6.73412 12.9204 6.84139 12.9626 6.95416 12.9837C7.01094 12.9948 7.06879 13.0003 7.12676 13C7.32883 12.9997 7.52456 12.9327 7.68065 12.8105C7.83673 12.6882 7.94354 12.5182 7.9829 12.3294L9.7328 3.99467C9.7555 3.88734 9.75573 3.77679 9.73346 3.66937C9.7112 3.56195 9.66687 3.45978 9.60304 3.36872C9.53921 3.27766 9.45713 3.19952 9.3615 3.13876C9.26588 3.078 9.1586 3.03584 9.04582 3.01469Z" fill="black"/>
  <path d="M14.7962 7.46529L12.6088 4.96488C12.5354 4.88018 12.4452 4.81014 12.3433 4.75878C12.2414 4.70742 12.1299 4.67575 12.0151 4.66559C11.9003 4.65543 11.7846 4.66699 11.6745 4.69959C11.5644 4.73219 11.4622 4.7852 11.3737 4.85557C11.2852 4.92593 11.2121 5.01227 11.1588 5.10961C11.1054 5.20695 11.0728 5.31338 11.0628 5.42278C11.0527 5.53217 11.0655 5.64238 11.1003 5.74706C11.1351 5.85175 11.1913 5.94884 11.2657 6.03276L12.9865 7.99925L11.2657 9.96572C11.1913 10.0496 11.1351 10.1467 11.1003 10.2514C11.0654 10.3561 11.0527 10.4663 11.0627 10.5757C11.0727 10.6851 11.1054 10.7915 11.1587 10.8889C11.2121 10.9862 11.2851 11.0725 11.3736 11.1429C11.4621 11.2133 11.5644 11.2663 11.6744 11.2989C11.7845 11.3315 11.9003 11.343 12.0151 11.3329C12.1298 11.3227 12.2414 11.2911 12.3433 11.2397C12.4452 11.1883 12.5354 11.1183 12.6088 11.0336L14.7962 8.53316C14.9278 8.3835 15 8.19448 15 7.99923C15 7.80397 14.9278 7.61495 14.7962 7.46529Z" fill="black"/>
</svg> -->

<svg width="16" height="16" viewBox="0 0 16 16" fill="none" xmlns="http://www.w3.org/2000/svg">
  <path d="M4.36445 4.85907C4.19885 4.71798 3.98552 4.6499 3.77112 4.66973C3.55672 4.68956 3.35869 4.79568 3.22036 4.96489L1.18923 7.4653C1.06699 7.61496 1 7.80398 1 7.99923C1 8.19449 1.06699 8.38351 1.18923 8.53317L3.22036 11.0336C3.2885 11.1183 3.37228 11.1883 3.4669 11.2397C3.56151 11.291 3.66509 11.3227 3.77167 11.3329C3.87826 11.343 3.98575 11.3315 4.08797 11.2989C4.19018 11.2663 4.28511 11.2133 4.36729 11.1429C4.44947 11.0725 4.51729 10.9862 4.56683 10.8889C4.61638 10.7915 4.64668 10.6851 4.656 10.5757C4.66532 10.4663 4.65346 10.3561 4.62112 10.2514C4.58878 10.1467 4.53659 10.0496 4.46755 9.9657L2.86967 7.99926L4.46759 6.03279C4.60558 5.86309 4.67223 5.64413 4.65289 5.42403C4.63355 5.20393 4.5298 5.00072 4.36445 4.85907Z" fill="black"/>
  <path d="M8.47112 3.01469C8.26007 2.9737 8.04177 3.01929 7.86314 3.14166C7.68452 3.26404 7.55982 3.45342 7.51586 3.66911L5.89096 12.0038C5.86988 12.1111 5.86968 12.2217 5.89036 12.3291C5.91104 12.4365 5.9522 12.5387 6.01147 12.6297C6.07074 12.7208 6.14696 12.7989 6.23575 12.8596C6.32454 12.9204 6.42415 12.9626 6.52887 12.9837C6.58159 12.9948 6.6353 13.0003 6.68913 13C6.87677 12.9997 7.05852 12.9327 7.20346 12.8105C7.3484 12.6882 7.44757 12.5182 7.48412 12.3294L9.10903 3.99467C9.13011 3.88734 9.13032 3.77679 9.10964 3.66937C9.08897 3.56195 9.04781 3.45978 8.98854 3.36872C8.92927 3.27766 8.85305 3.19952 8.76425 3.13876C8.67546 3.078 8.57584 3.03584 8.47112 3.01469Z" fill="black"/>
  <path d="M13.8108 7.46529L11.7796 4.96488C11.7115 4.88018 11.6277 4.81014 11.5331 4.75878C11.4385 4.70742 11.3349 4.67575 11.2283 4.66559C11.1217 4.65543 11.0143 4.66699 10.912 4.69959C10.8098 4.73219 10.7149 4.7852 10.6327 4.85557C10.5505 4.92593 10.4827 5.01227 10.4332 5.10961C10.3836 5.20695 10.3533 5.31338 10.344 5.42278C10.3347 5.53217 10.3465 5.64238 10.3789 5.74706C10.4112 5.85175 10.4634 5.94884 10.5325 6.03276L12.1303 7.99925L10.5324 9.96572C10.4634 10.0496 10.4112 10.1467 10.3788 10.2514C10.3465 10.3561 10.3346 10.4663 10.344 10.5757C10.3533 10.6851 10.3836 10.7915 10.4331 10.8889C10.4827 10.9862 10.5505 11.0725 10.6327 11.1429C10.7149 11.2133 10.8098 11.2663 10.912 11.2989C11.0142 11.3315 11.1217 11.343 11.2283 11.3329C11.3349 11.3227 11.4385 11.2911 11.5331 11.2397C11.6277 11.1883 11.7115 11.1183 11.7796 11.0336L13.8108 8.53316C13.933 8.3835 14 8.19448 14 7.99923C14 7.80397 13.933 7.61495 13.8108 7.46529Z" fill="black"/>
</svg>
