<svg width="16" height="16" viewBox="0 0 16 16" fill="none" xmlns="http://www.w3.org/2000/svg">
  <path d="M2 8.5C2 11.5641 2 13.0962 2.95191 14.0481C3.9038 15 5.43587 15 8.5 15C11.5641 15 13.0962 15 14.0481 14.0481C15 13.0962 15 12.2143 15 10.3571M7.57143 2C4.5073 2 3.9038 2 2.95191 2.95191C2.31897 3.58484 2.10689 4.47426 2.03581 5.9" stroke="black" stroke-width="1.5" stroke-linecap="round"/>
  <path d="M11.562 2.9354L11.9792 2.5183C12.6702 1.82723 13.7907 1.82723 14.4817 2.5183C15.1728 3.20937 15.1728 4.32981 14.4817 5.02087L14.0646 5.43797M11.562 2.9354C11.562 2.9354 11.6141 3.82172 12.3962 4.60378C13.1783 5.38583 14.0646 5.43797 14.0646 5.43797M11.562 2.9354L7.72749 6.76995C7.46777 7.02967 7.33792 7.1595 7.22621 7.30273C7.09446 7.47161 6.98151 7.65438 6.88936 7.84775C6.81123 8.01168 6.75315 8.18589 6.637 8.53438L6.26513 9.64999M14.0646 5.43797L12.1473 7.35525M6.26513 9.64999L6.0245 10.3719C5.96734 10.5434 6.01197 10.7324 6.13978 10.8602C6.2676 10.988 6.45666 11.0327 6.62813 10.9755L7.35 10.7349M6.26513 9.64999L7.35 10.7349M10.2301 9.27251C9.97036 9.53222 9.8405 9.66208 9.69727 9.77381C9.52839 9.90553 9.34563 10.0185 9.15226 10.1107C8.98833 10.1888 8.81411 10.2468 8.46562 10.363L7.35 10.7349" stroke="black" stroke-width="1.5" stroke-linecap="round"/>
</svg>
