<!-- <svg width="16" height="16" viewBox="0 0 16 16" fill="none" xmlns="http://www.w3.org/2000/svg">
  <path fill-rule="evenodd" clip-rule="evenodd" d="M6.0025 11.257V12.7545C6.0025 12.8291 5.97918 12.8897 5.93253 12.9364C5.88589 12.983 5.82525 13.0064 5.75062 13.0064H3.24588C3.18991 13.0064 3.13393 12.983 3.07796 12.9364C3.02199 12.8897 2.994 12.8291 2.994 12.7545V11.257C3.00333 11.1824 3.03132 11.1217 3.07796 11.0751C3.1246 11.0284 3.18058 11.0051 3.24588 11.0051H5.75062C5.82525 11.0051 5.88589 11.0284 5.93253 11.0751C5.97918 11.1217 6.0025 11.1824 6.0025 11.257ZM6.0025 8.24809V9.75954C6.0025 9.82485 5.97918 9.88083 5.93253 9.92748C5.88589 9.97413 5.82525 9.99746 5.75062 9.99746H3.24588C3.18991 9.99746 3.13393 9.97413 3.07796 9.92748C3.02199 9.88083 2.994 9.82485 2.994 9.75954V8.24809C3.00333 8.18278 3.03132 8.1268 3.07796 8.08015C3.1246 8.0335 3.18058 8.01018 3.24588 8.01018H5.75062C5.82525 8.01018 5.88589 8.0335 5.93253 8.08015C5.97918 8.1268 6.0025 8.18278 6.0025 8.24809ZM6.0025 5.25318V6.75064C6.0025 6.82528 5.97918 6.88592 5.93253 6.93257C5.88589 6.97922 5.82525 7.00254 5.75062 7.00254H3.24588C3.18991 7.00254 3.13393 6.97922 3.07796 6.93257C3.02199 6.88592 2.994 6.82528 2.994 6.75064V5.25318C3.00333 5.17854 3.03132 5.1179 3.07796 5.07125C3.1246 5.0246 3.18058 5.00127 3.24588 5.00127H5.75062C5.82525 5.00127 5.88589 5.0246 5.93253 5.07125C5.97918 5.1179 6.0025 5.17854 6.0025 5.25318ZM9.9905 6.10196V5.25318C9.9905 5.17854 9.96718 5.1179 9.92054 5.07125C9.8739 5.0246 9.81792 5.00127 9.75262 5.00127H7.24788C7.17325 5.00127 7.11261 5.0246 7.06597 5.07125C7.01932 5.1179 6.996 5.17854 6.996 5.25318V6.75064C6.996 6.82528 7.01932 6.88592 7.06597 6.93257C7.11261 6.97922 7.17325 7.00254 7.24788 7.00254H7.99613C6.78388 7.91493 6 9.36592 6 11C6 12.1256 6.37194 13.1643 6.99963 14H3.24588C2.91004 14 2.61619 13.8787 2.36432 13.6361C2.11244 13.3936 1.99117 13.0997 2.0005 12.7545V4.25954C2.0005 3.91433 2.12177 3.62044 2.36432 3.37786C2.60686 3.13528 2.90072 3.00933 3.24588 3H13.7406C14.0858 3 14.3796 3.12595 14.6222 3.37786C14.8647 3.62977 14.9907 3.92366 15 4.25954V7.99951C14.6948 7.59334 14.3293 7.23517 13.9166 6.93832C13.9186 6.93644 13.9206 6.93453 13.9225 6.93257C13.9692 6.88592 13.9925 6.82528 13.9925 6.75064V5.25318C13.9925 5.17854 13.9692 5.1179 13.9225 5.07125C13.8759 5.0246 13.8153 5.00127 13.7406 5.00127H11.2499C11.1752 5.00127 11.1146 5.0246 11.068 5.07125C11.0213 5.1179 10.998 5.17854 10.998 5.25318V6C10.6529 6.00014 10.3159 6.03524 9.9905 6.10196Z" fill="#EEEEEE"/>
  <path d="M9.41749 8C9.18423 8 8.98807 8.11494 8.82903 8.34483L7 10.9885L8.82903 13.6322C8.99337 13.8774 9.18953 14 9.41749 14C9.64546 14 9.84162 13.8774 10.006 13.6322C10.1703 13.3946 10.2525 13.1149 10.2525 12.7931C10.2525 12.4713 10.1703 12.1877 10.006 11.9425L9.34592 10.9885L10.006 10.046C10.1703 9.80843 10.2525 9.5249 10.2525 9.1954C10.2525 8.8659 10.1703 8.58238 10.006 8.34483C9.84692 8.11494 9.65076 8 9.41749 8ZM12.5905 8C12.3572 8 12.161 8.11494 12.002 8.34483C11.8376 8.59004 11.7555 8.87356 11.7555 9.1954C11.7555 9.51724 11.8376 9.80077 12.002 10.046L12.6541 10.9885L12.002 11.9425C11.8376 12.1801 11.7555 12.4636 11.7555 12.7931C11.7555 13.1226 11.8376 13.4023 12.002 13.6322C12.161 13.8774 12.3545 14 12.5825 14C12.8105 14 13.0066 13.8774 13.171 13.6322L15 10.9885L13.171 8.34483C13.0119 8.11494 12.8184 8 12.5905 8Z" fill="#EEEEEE"/>
</svg> -->

<svg width="16" height="16" viewBox="0 0 16 16" fill="none" xmlns="http://www.w3.org/2000/svg">
  <path fill-rule="evenodd" clip-rule="evenodd" d="M5.0025 11.257V12.7545C5.0025 12.8291 4.97918 12.8897 4.93253 12.9364C4.88589 12.983 4.82525 13.0064 4.75062 13.0064H2.24588C2.18991 13.0064 2.13393 12.983 2.07796 12.9364C2.02199 12.8897 1.994 12.8291 1.994 12.7545V11.257C2.00333 11.1824 2.03132 11.1217 2.07796 11.0751C2.1246 11.0284 2.18058 11.0051 2.24588 11.0051H4.75062C4.82525 11.0051 4.88589 11.0284 4.93253 11.0751C4.97918 11.1217 5.0025 11.1824 5.0025 11.257ZM5.0025 8.24809V9.75954C5.0025 9.82485 4.97918 9.88083 4.93253 9.92748C4.88589 9.97413 4.82525 9.99746 4.75062 9.99746H2.24588C2.18991 9.99746 2.13393 9.97413 2.07796 9.92748C2.02199 9.88083 1.994 9.82485 1.994 9.75954V8.24809C2.00333 8.18278 2.03132 8.1268 2.07796 8.08015C2.1246 8.0335 2.18058 8.01018 2.24588 8.01018H4.75062C4.82525 8.01018 4.88589 8.0335 4.93253 8.08015C4.97918 8.1268 5.0025 8.18278 5.0025 8.24809ZM6.00348 11.1883C5.99849 11.2097 5.996 11.2326 5.996 11.257V12.7545C5.996 12.8291 6.01932 12.8897 6.06597 12.9364C6.11261 12.983 6.17325 13.0064 6.24788 13.0064H6.41883C6.57436 13.361 6.76986 13.6941 6.99963 14H2.24588C1.91004 14 1.61619 13.8787 1.36432 13.6361C1.11244 13.3936 0.991171 13.0997 1.0005 12.7545V4.25954C1.0005 3.91433 1.12177 3.62044 1.36432 3.37786C1.60686 3.13528 1.90072 3.00933 2.24588 3H12.7406C13.0858 3 13.3796 3.12595 13.6222 3.37786C13.8647 3.62977 13.9907 3.92367 14 4.25954V6.99963C13.6901 6.76687 13.3523 6.56928 12.9925 6.41278V5.25318C12.9925 5.17854 12.9692 5.1179 12.9225 5.07125C12.8759 5.0246 12.8153 5.00127 12.7406 5.00127H10.2499C10.1752 5.00127 10.1146 5.0246 10.068 5.07125C10.0213 5.1179 9.998 5.17854 9.998 5.25318V6.10042C9.64745 6.17173 9.31022 6.27972 8.9905 6.4202V5.25318C8.9905 5.17854 8.96718 5.1179 8.92054 5.07125C8.8739 5.0246 8.81792 5.00127 8.75262 5.00127H6.24788C6.17325 5.00127 6.11261 5.0246 6.06597 5.07125C6.01932 5.1179 5.996 5.17854 5.996 5.25318V6.75064C5.996 6.82528 6.01932 6.88592 6.06597 6.93257C6.11261 6.97922 6.17325 7.00254 6.24788 7.00254H7.99613C7.61553 7.289 7.27716 7.62854 6.99201 8.01018H6.24788C6.17325 8.01018 6.11261 8.0335 6.06597 8.08015C6.01932 8.1268 5.996 8.18278 5.996 8.24809V9.75954C5.996 9.82485 6.01932 9.88083 6.06597 9.92748C6.07893 9.94045 6.09298 9.95161 6.1081 9.96097C6.03726 10.2962 6 10.6437 6 11C6 11.063 6.00117 11.1258 6.00348 11.1883ZM5.0025 5.25318V6.75064C5.0025 6.82528 4.97918 6.88592 4.93253 6.93257C4.88589 6.97922 4.82525 7.00254 4.75062 7.00254H2.24588C2.18991 7.00254 2.13393 6.97922 2.07796 6.93257C2.02199 6.88592 1.994 6.82528 1.994 6.75064V5.25318C2.00333 5.17854 2.03132 5.1179 2.07796 5.07125C2.1246 5.0246 2.18058 5.00127 2.24588 5.00127H4.75062C4.82525 5.00127 4.88589 5.0246 4.93253 5.07125C4.97918 5.1179 5.0025 5.17854 5.0025 5.25318Z" fill="black"/>
  <path d="M9.41749 8C9.18423 8 8.98807 8.11494 8.82903 8.34483L7 10.9885L8.82903 13.6322C8.99337 13.8774 9.18953 14 9.41749 14C9.64546 14 9.84162 13.8774 10.006 13.6322C10.1703 13.3946 10.2525 13.1149 10.2525 12.7931C10.2525 12.4713 10.1703 12.1877 10.006 11.9425L9.34592 10.9885L10.006 10.046C10.1703 9.80843 10.2525 9.5249 10.2525 9.1954C10.2525 8.8659 10.1703 8.58238 10.006 8.34483C9.84692 8.11494 9.65076 8 9.41749 8ZM12.5905 8C12.3572 8 12.161 8.11494 12.002 8.34483C11.8376 8.59004 11.7555 8.87356 11.7555 9.1954C11.7555 9.51724 11.8376 9.80077 12.002 10.046L12.6541 10.9885L12.002 11.9425C11.8376 12.1801 11.7555 12.4636 11.7555 12.7931C11.7555 13.1226 11.8376 13.4023 12.002 13.6322C12.161 13.8774 12.3545 14 12.5825 14C12.8105 14 13.0066 13.8774 13.171 13.6322L15 10.9885L13.171 8.34483C13.0119 8.11494 12.8184 8 12.5905 8Z" fill="black"/>
</svg>
