<svg width="16" height="16" viewBox="0 0 16 16" fill="none" xmlns="http://www.w3.org/2000/svg">
  <path d="M9.51947 1C10.0934 1 10.6029 1.3856 10.7844 1.95728L11.1472 3.1H13.3333C13.7015 3.1 14 3.4134 14 3.8C14 4.18659 13.7015 4.49999 13.3333 4.5L13.3317 4.54987L12.7534 13.0496C12.6787 14.1486 11.8078 15 10.7585 15H5.24149C4.19221 15 3.32133 14.1486 3.24657 13.0496L2.66836 4.54987C2.66722 4.53314 2.66665 4.51651 2.66664 4.5C2.29846 4.49999 2 4.18659 2 3.8C2 3.4134 2.29848 3.1 2.66667 3.1H4.85283L5.21559 1.95728C5.39708 1.3856 5.9066 1 6.48051 1H9.51947ZM11.9983 4.5H4.0017L4.57652 12.9498C4.60144 13.3162 4.89173 13.6 5.24149 13.6H10.7585C11.1083 13.6 11.3985 13.3162 11.4235 12.9498L11.9983 4.5ZM6.66667 6.6C7.00857 6.6 7.29034 6.87022 7.32885 7.21836L7.33333 7.3V10.8C7.33333 11.1866 7.03487 11.5 6.66667 11.5C6.32477 11.5 6.04299 11.2298 6.00448 10.8816L6 10.8V7.3C6 6.91339 6.29847 6.6 6.66667 6.6ZM9.33333 6.6C9.70153 6.6 10 6.91339 10 7.3V10.8C10 11.1866 9.70153 11.5 9.33333 11.5C8.96513 11.5 8.66667 11.1866 8.66667 10.8V7.3C8.66667 6.91339 8.96513 6.6 9.33333 6.6ZM9.51947 2.4H6.48051L6.25829 3.1H9.74173L9.51947 2.4Z" fill="#FF2869"/>
</svg>
