<svg width="16" height="16" viewBox="0 0 16 16" fill="none" xmlns="http://www.w3.org/2000/svg">
  <path fill-rule="evenodd" clip-rule="evenodd" d="M2.25587 0H13.7441C14.9878 0 16 1.01221 16 2.25587V13.7441C16 14.9878 14.9878 16 13.7442 16H2.25587C1.01221 16 0 14.9878 0 13.7442V2.25587C0 1.01221 1.01221 0 2.25587 0ZM10.0236 1H2.25587C1.56346 1 1 1.56349 1 2.25587V6.56761C1.78668 6.41162 2.53179 6.20238 3.22553 5.94358L3.01489 5.21881C2.8177 4.54034 3.21146 3.8239 3.88993 3.62671L6.16402 2.96575C6.69518 2.81136 7.24594 3.0224 7.55628 3.44552C8.63696 2.57091 9.46155 1.68558 10.0236 1ZM13.7441 15C14.4365 15 15 14.4365 15 13.7441V2.25587C15 1.56349 14.4365 1 13.7442 1H11.3017C10.7119 1.81153 9.59236 3.1647 7.93509 4.45665L8.37456 5.96872C8.57172 6.64718 8.17796 7.36362 7.49949 7.56082L5.22544 8.22178C4.54697 8.41894 3.8305 8.02518 3.63334 7.34671L3.50815 6.91602C2.72865 7.19902 1.89244 7.42854 1 7.59053V13.7441C1 14.4365 1.56349 15 2.25587 15H13.7441ZM11.0889 7.12408C11.8579 7.12408 12.4813 6.50068 12.4813 5.73169C12.4813 4.96269 11.8579 4.33929 11.0889 4.33929C10.3199 4.33929 9.69653 4.96269 9.69653 5.73169C9.69653 6.50068 10.3199 7.12408 11.0889 7.12408ZM4.49707 9.83398L3.89844 10.6353C3.92772 10.6567 5.74933 11.9893 8.16064 11.9893C9.3755 11.9893 10.7407 11.6509 12.1016 10.6357L11.5039 9.83398C8.04685 12.4116 4.64012 9.94043 4.49707 9.83398Z" fill="white"/>
</svg>
