<svg width="16" height="16" viewBox="0 0 16 16" fill="none" xmlns="http://www.w3.org/2000/svg">
<path d="M5.5 10.75C5.5 11.1642 5.16421 11.5 4.75 11.5C4.33579 11.5 4 11.1642 4 10.75C4 10.3358 4.33579 10 4.75 10C5.16421 10 5.5 10.3358 5.5 10.75Z" fill="#000"/>
<path d="M9 10.75C9 11.1642 8.66421 11.5 8.25 11.5C7.83579 11.5 7.5 11.1642 7.5 10.75C7.5 10.3358 7.83579 10 8.25 10C8.66421 10 9 10.3358 9 10.75Z" fill="#000"/>
<path d="M12.5 10.75C12.5 11.1642 12.1642 11.5 11.75 11.5C11.3358 11.5 11 11.1642 11 10.75C11 10.3358 11.3358 10 11.75 10C12.1642 10 12.5 10.3358 12.5 10.75Z" fill="#000"/>
</svg>
